<svg width="22" height="22" viewBox="0 0 22 22" fill="none" xmlns="http://www.w3.org/2000/svg">
<path d="M2.75 11C2.75 14.4567 2.75 18.0189 3.95817 19.0923C5.16633 20.1667 7.1115 20.1667 11 20.1667C14.8885 20.1667 16.8337 20.1667 18.0418 19.0923C19.25 18.018 19.25 14.4567 19.25 11" stroke="#263542" stroke-width="1.2"/>
<path d="M13.4385 13.0185L19.12 11.3135C19.4958 11.2007 19.6847 11.1448 19.824 11.033C19.9457 10.935 20.0404 10.8075 20.099 10.6627C20.1668 10.4977 20.1668 10.3006 20.1668 9.90733C20.1668 8.36 20.1668 7.58725 19.8643 6.99692C19.6014 6.48333 19.1835 6.06548 18.6699 5.8025C18.0796 5.5 17.3068 5.5 15.7595 5.5H6.24083C4.6935 5.5 3.92075 5.5 3.33041 5.8025C2.81683 6.06548 2.39897 6.48333 2.136 6.99692C1.8335 7.58725 1.8335 8.36 1.8335 9.90733C1.8335 10.3006 1.8335 10.4967 1.90041 10.6627C1.95901 10.8075 2.05368 10.935 2.17541 11.033C2.31566 11.1448 2.50358 11.2008 2.88125 11.3144L8.56183 13.0185" stroke="#263542" stroke-width="1.2"/>
<path d="M8.40576 3.66663C8.59515 3.1299 8.94636 2.66512 9.41098 2.33636C9.8756 2.0076 10.4308 1.83105 10.9999 1.83105C11.5691 1.83105 12.1243 2.0076 12.5889 2.33636C13.0535 2.66512 13.4047 3.1299 13.5941 3.66663M12.8333 11.4583H9.1666C9.04504 11.4583 8.92846 11.5066 8.8425 11.5925C8.75655 11.6785 8.70826 11.7951 8.70826 11.9166V13.8985C8.70828 13.99 8.73571 14.0794 8.78701 14.1552C8.83831 14.231 8.91113 14.2898 8.9961 14.3238L9.63776 14.5805C10.5122 14.9304 11.4877 14.9304 12.3621 14.5805L13.0038 14.3238C13.0887 14.2898 13.1615 14.231 13.2128 14.1552C13.2641 14.0794 13.2916 13.99 13.2916 13.8985V11.9166C13.2916 11.7951 13.2433 11.6785 13.1574 11.5925C13.0714 11.5066 12.9548 11.4583 12.8333 11.4583Z" stroke="#263542" stroke-width="1.2" stroke-linecap="round"/>
</svg>
